<svg width="27" height="24" viewBox="0 0 27 24" fill="none" xmlns="http://www.w3.org/2000/svg">
<path d="M13.5 0.000642806C10.0886 -0.0328495 6.80308 1.24365 4.36541 3.5496C1.92774 5.85556 0.537417 9.00227 0.5 12.2982C0.513145 14.9029 1.38039 17.4366 2.97716 19.5353C4.57394 21.634 6.81809 23.1898 9.38727 23.9791C10.0373 24.0933 10.2736 23.7165 10.2736 23.3854C10.2736 23.0543 10.2736 22.3235 10.2736 21.2958C6.65727 22.038 5.88909 19.6516 5.88909 19.6516C5.64835 18.9024 5.13655 18.262 4.44727 17.8475C3.26545 17.0939 4.54182 17.1053 4.54182 17.1053C4.95032 17.1581 5.34115 17.2995 5.685 17.519C6.02886 17.7385 6.31681 18.0304 6.52727 18.3727C6.89403 18.9872 7.49581 19.438 8.2031 19.628C8.91039 19.8181 9.66665 19.7322 10.3091 19.389C10.3752 18.7637 10.6682 18.1812 11.1364 17.7447C8.25273 17.4364 5.22727 16.386 5.22727 11.6702C5.20149 10.4401 5.67192 9.24848 6.53909 8.34745C6.14416 7.29133 6.19079 6.12808 6.66909 5.10464C6.66909 5.10464 7.76818 4.77351 10.2145 6.36066C12.3441 5.81239 14.585 5.81239 16.7145 6.36066C19.1964 4.77351 20.26 5.10464 20.26 5.10464C20.7383 6.12808 20.7849 7.29133 20.39 8.34745C21.2773 9.23196 21.7733 10.4155 21.7727 11.6473C21.7727 16.3745 18.7236 17.4136 15.8636 17.7219C16.1768 18.0157 16.4187 18.3728 16.572 18.7677C16.7252 19.1625 16.786 19.5853 16.75 20.0056V23.374C16.75 23.374 16.9864 24.0933 17.6364 23.9677C20.1983 23.1735 22.4348 21.6173 24.0267 19.5216C25.6185 17.4258 26.4842 14.8977 26.5 12.2982C26.4626 9.00227 25.0723 5.85556 22.6346 3.5496C20.1969 1.24365 16.9114 -0.0328495 13.5 0.000642806Z" fill="white"/>
</svg>
