<svg width="27" height="16" viewBox="0 0 27 16" fill="none" xmlns="http://www.w3.org/2000/svg">
<path fill-rule="evenodd" clip-rule="evenodd" d="M25.6534 1.08342C25.8341 0.458903 25.6534 0 24.7933 0H21.9489C21.2256 0 20.8922 0.396423 20.7114 0.833554C20.7114 0.833554 19.2648 4.48694 17.2157 6.86C16.5528 7.54697 16.2514 7.7656 15.8898 7.7656C15.709 7.7656 15.4377 7.54697 15.4377 6.92252V1.08342C15.4377 0.334 15.2374 0 14.6346 0H10.1648C9.71286 0 9.44104 0.347817 9.44104 0.677463C9.44104 1.3879 10.4656 1.55174 10.5712 3.55018V7.89051C10.5712 8.84206 10.4053 9.01463 10.0437 9.01463C9.07943 9.01463 6.73383 5.34494 5.34268 1.14584C5.07005 0.32968 4.7966 0 4.06965 0H1.22524C0.412548 0 0.25 0.396423 0.25 0.833554C0.25 1.61422 1.21432 5.48616 4.74003 10.6071C7.09049 14.1042 10.4021 16 13.4155 16C15.2236 16 15.4473 15.579 15.4473 14.8537V12.2105C15.4473 11.3685 15.6186 11.2003 16.1912 11.2003C16.613 11.2003 17.3362 11.419 19.0238 13.1051C20.9524 15.1035 21.2704 16 22.3551 16H25.1996C26.0122 16 26.4186 15.579 26.1842 14.748C25.9276 13.9199 25.0069 12.7184 23.7851 11.2941C23.1221 10.4822 22.1276 9.60789 21.8262 9.17063C21.4044 8.60869 21.525 8.35886 21.8262 7.85931C21.8262 7.85931 25.2918 2.80077 25.6534 1.08342Z" fill="white"/>
</svg>
